<svg viewBox="0 0 24 24" xmlns="http://www.w3.org/2000/svg" class="flix-icon bus-service"><path d="M13.7 17.68a.5.5 0 01.5-.51h.73a.5.5 0 010 1.01h-.72a.5.5 0 01-.51-.5zM7 17.16h-.73a.5.5 0 100 1.01H7a.5.5 0 100-1.01zm8.8-1.77c.58 0 1.16-.07 1.72-.22V21a1 1 0 01-1 1h-1.26a1 1 0 01-1-1v-.68H6.94V21a1 1 0 01-1 1H4.7a1 1 0 01-1-1v-9.6H3a1 1 0 01-1-1V8.96a1 1 0 011-1h.68v-.47A3.49 3.49 0 017.17 4h2.8c-.23.32-.44.66-.61 1.02h-2.2A2.47 2.47 0 004.7 7.49v7.23c2.95.46 5.95.58 8.93.34.7.23 1.43.34 2.17.34zM3.68 8.97h-.66v1.42h.66V8.97zm2.25 11.35H4.7V21l1.23-.01v-.67zm10.57 0h-1.23V21l1.23-.01v-.67zm0-4.57a38.35 38.35 0 01-11.8 0v3.55h11.8v-3.55zM22 8.2a6.2 6.2 0 11-12.4 0 6.2 6.2 0 0112.4 0zm-1 0a5.2 5.2 0 10-10.4 0 5.2 5.2 0 0010.4 0zm-1.9-.5h-2.8V4.9a.5.5 0 00-1 0v2.8h-2.8a.5.5 0 000 1h2.8v2.8a.5.5 0 001 0V8.7h2.8a.5.5 0 000-1z"></path></svg>