<?xml version="1.0" encoding="utf-8"?>
<svg viewBox="0 0 24 24" xmlns="http://www.w3.org/2000/svg">
  <path d="M 6.802 5.722 L 20.878 5.722 C 21.42 5.723 21.859 6.162 21.86 6.704 L 21.86 17.13 C 21.86 17.327 21.801 17.519 21.69 17.682 C 21.67 17.734 21.638 17.781 21.597 17.821 C 21.57 17.846 21.539 17.868 21.506 17.885 C 21.329 18.032 21.107 18.114 20.878 18.114 L 12.55 18.114 C 12.61 17.867 12.634 17.613 12.621 17.359 L 20.629 17.359 L 15.398 11.867 L 13.673 13.338 C 13.533 13.455 13.33 13.455 13.191 13.338 L 11.38 11.867 L 9.736 13.513 C 9.51 13.36 9.256 13.252 8.988 13.196 L 10.793 11.388 L 7.447 8.66 C 7.433 8.462 7.394 8.268 7.331 8.08 L 7.197 7.488 L 13.423 12.563 L 20.564 6.479 L 6.972 6.479 L 6.802 5.722 Z M 3.979 10.47 C 4.137 11.344 4.407 12.194 4.781 13 C 5.222 13.919 5.82 14.755 6.548 15.47 C 6.6 15.524 6.672 15.552 6.746 15.546 C 6.866 15.531 6.981 15.493 7.086 15.433 C 7.209 15.364 7.328 15.287 7.442 15.202 C 7.974 14.832 8.629 14.373 9.187 14.888 C 9.2 14.9 9.207 14.912 9.221 14.922 L 10.996 16.878 C 11.003 16.885 11.008 16.892 11.013 16.9 C 11.221 17.182 11.271 17.551 11.147 17.878 C 11.008 18.254 10.779 18.589 10.479 18.855 C 10.105 19.191 9.633 19.396 9.133 19.442 C 8.664 19.485 8.191 19.462 7.728 19.374 C 7.036 19.257 6.381 18.982 5.81 18.572 C 5.188 18.111 4.626 17.574 4.138 16.973 L 4.097 16.923 C 3.839 16.618 3.561 16.291 3.302 15.926 C 2.276 14.455 1.556 12.792 1.188 11.037 C 0.896 9.553 0.955 8.071 1.583 6.845 C 1.922 6.167 2.441 5.624 3.109 5.371 C 3.692 5.147 4.383 5.144 5.166 5.478 C 5.255 5.515 5.318 5.594 5.335 5.688 L 5.968 8.5 C 6.088 8.779 6.034 9.103 5.829 9.328 C 5.629 9.532 5.377 9.678 5.101 9.752 C 5.006 9.793 4.897 9.828 4.78 9.865 C 4.395 9.99 3.955 10.139 3.977 10.484 L 3.979 10.47 Z M 15.972 11.374 L 21.104 16.756 L 21.104 7.008 L 15.972 11.379 L 15.972 11.374 Z" style=""/>
</svg>