<svg width="103" height="43" viewBox="0 0 103 43" fill="none" xmlns="http://www.w3.org/2000/svg">
<g clip-path="url(#clip0)">
<path d="M3.53719 26.2012V6.81281H0V26.2012H3.53719ZM24.6291 26.2012L19.9781 10.8084H15.7856L11.2659 25.5469L7.07344 15.7875L11.2659 6.81374H7.20469L3.6675 15.8531L7.53187 26.1366H14.9991L15.5887 23.5162H20.2397L20.895 26.1366L24.6291 26.2022V26.2012ZM21.8775 8.71218L19.9781 6.81281H15.7856L13.8862 8.71218H21.8775ZM41.3972 26.2012L40.9387 10.8084H37.5328L33.6028 18.4725L29.7384 10.7428H26.3325L25.7428 26.2012H29.28L29.4112 20.5022V20.0437C29.4112 18.6028 29.28 16.6378 28.9528 14.28C29.7384 16.3106 30.3281 17.8172 30.8522 18.7997L33.6028 23.9091L36.2231 18.9309C36.8784 17.8828 37.4681 16.3106 38.2537 14.4112C37.9266 16.7691 37.7953 18.7341 37.7953 20.1103L37.9266 26.2022H41.3981L41.3972 26.2012ZM48.2747 26.2012V10.7428H44.4759V26.2012H48.2747ZM59.4103 23.3841H55.0875V10.8075H51.5503V26.2003H58.8862L59.4103 23.3841ZM48.2747 8.71218V6.81281H44.5406V8.71218H48.2747ZM19.6509 20.9606H16.0481L16.8337 17.6859C17.4234 15.0656 17.7506 13.2975 17.8819 12.3806C18.5372 14.8697 18.93 16.7034 19.1269 17.6859L19.6509 20.9606Z" fill="white"/>
<path d="M96.0937 25.7428V22.9266C94.9799 23.385 93.8015 23.5819 92.9493 23.5819C92.294 23.5819 91.7043 23.4506 91.3771 22.9922C90.7218 22.3369 90.2633 20.9616 90.2633 18.6694C90.2633 16.1803 90.7218 14.6081 91.5083 13.8225C91.9668 13.3641 92.5565 13.1672 93.2118 13.1672C94.2599 13.1672 95.1112 13.3641 96.1593 13.7569V11.0062C95.3737 10.6791 94.3255 10.4166 93.2118 10.4166C90.9196 10.4166 89.2162 11.2022 88.1024 12.9056C87.0543 14.3466 86.6615 16.3116 86.6615 18.6694C86.6615 21.0272 87.1199 22.8619 87.9065 24.1059C88.9546 25.5469 90.5268 26.3981 92.7533 26.3981C93.9983 26.3981 95.1112 26.2012 96.0937 25.7428ZM96.0937 28.1006H89.8705L87.9712 30H94.1943L96.0937 28.1006ZM85.1549 18.3403C85.1549 13.035 83.1243 10.4147 79.063 10.4147C75.0018 10.4147 72.9712 13.035 72.9712 18.3403C72.9712 21.4847 73.6265 23.6456 74.8705 24.8906C75.9187 25.9387 77.2283 26.3316 79.063 26.3316C81.3552 26.3316 82.9274 25.5459 83.9099 23.9737C84.6955 22.6641 85.1549 20.895 85.1549 18.3403ZM73.2337 26.2012L68.714 15.7866L72.9065 6.81281H68.8452L65.2424 15.8522L69.1068 26.1356L73.2337 26.2012ZM65.1768 26.2012V6.81281H61.574V26.2012H65.1768ZM81.4865 18.3403C81.4865 21.0909 81.1593 22.6631 80.4383 23.3184C80.2415 23.6456 79.6527 23.7769 78.9974 23.7769C78.3421 23.7769 77.8837 23.6456 77.6221 23.3184C76.8365 22.5328 76.5083 20.9606 76.5083 18.3403C76.5083 15.8512 76.8355 14.2791 77.6221 13.4934C77.9493 13.1662 78.4077 12.9037 78.9974 12.9037C79.5871 12.9037 80.1112 13.1006 80.4383 13.4934C81.1593 14.1487 81.4865 15.8512 81.4865 18.3403Z" fill="white"/>
<path d="M102.056 8.77688C102.056 7.53188 101.271 6.81187 100.091 6.81187C98.9118 6.81187 98.1262 7.53281 98.1262 8.77688C98.1262 10.0209 98.9118 10.7419 100.091 10.7419C101.205 10.7419 102.056 9.95625 102.056 8.77688ZM101.598 8.77688C101.598 9.75938 101.074 10.4147 100.026 10.4147C98.9775 10.4147 98.4534 9.825 98.4534 8.77688C98.4534 7.79438 98.9775 7.13906 100.026 7.13906C101.074 7.13906 101.598 7.72875 101.598 8.77688ZM100.942 9.75938L100.746 9.30094C100.68 9.10406 100.549 8.90813 100.418 8.8425C100.68 8.71125 100.877 8.58094 100.877 8.31844C100.877 7.79438 100.418 7.72875 99.96 7.72875H99.3703V9.825H99.8287V8.97375H100.09C100.222 9.03937 100.287 9.30094 100.352 9.49781L100.483 9.825L100.942 9.75938H100.942ZM100.418 8.31844C100.418 8.58 100.287 8.64562 99.7631 8.71125V7.99031H99.8943C100.287 7.99031 100.418 7.99031 100.418 8.3175V8.31844Z" fill="white"/>
<path d="M91.1793 6.1575H89.3455L89.804 5.69906C90.7208 4.65094 91.1793 3.79969 91.1793 3.01312C91.1793 1.89937 90.7208 1.30969 89.7383 1.30969C89.1486 1.30969 88.8214 1.30969 88.4933 1.50656V2.16188C88.8205 2.03063 89.1486 1.965 89.6071 1.965C90.1968 1.965 90.3927 2.29219 90.3927 3.01312C90.3927 3.47156 90.2615 3.79875 90.0655 4.25719C89.9343 4.45406 89.6071 4.84687 89.2799 5.30531L88.4943 6.22219V6.8775H91.1802V6.15656L91.1793 6.1575ZM87.838 4.25812C87.838 2.2275 87.1827 1.31062 85.9386 1.31062C85.3489 1.31062 84.8249 1.5075 84.5633 1.96594C84.2361 2.42437 84.1049 3.01406 84.1049 3.53813C84.1049 4.19344 84.2361 4.65188 84.5633 4.97906C84.7602 5.30625 85.2186 5.56875 85.8083 5.56875C86.2668 5.56875 86.7252 5.4375 87.0533 5.24156C86.8565 6.61688 86.0052 7.40344 84.8914 7.59937V8.18906C85.9396 8.18906 86.5949 7.73063 87.1836 6.945C87.5765 6.28969 87.8389 5.37281 87.8389 4.25906L87.838 4.25812ZM82.9255 6.8775V1.30969H82.3358L81.0908 1.965V2.62031L82.1389 2.16188V6.81281L82.9246 6.87844L82.9255 6.8775ZM95.0436 4.71656C95.0436 5.30625 95.0436 5.63344 94.9124 5.83031C94.7811 6.28875 94.454 6.42 93.9955 6.42C93.5371 6.42 93.2099 6.22313 93.0786 5.63438C92.9474 5.4375 92.9474 4.97906 92.9474 4.25906V3.60375C93.2746 3.40688 93.6027 3.27656 94.0611 3.27656C94.7165 3.21094 95.0436 3.80063 95.0436 4.7175V4.71656ZM86.9868 4.58531C86.5283 4.78219 86.2011 4.9125 85.873 4.9125C85.2177 4.9125 84.8249 4.45406 84.8249 3.47156C84.8249 2.42344 85.1521 1.89937 85.873 1.89937C86.6586 1.89937 86.9868 2.685 86.9868 4.06125V4.58531ZM95.8293 4.71656C95.8293 3.34125 95.2396 2.68594 94.2571 2.68594C93.7986 2.68594 93.3402 2.88281 93.0121 3.14438C93.209 2.35875 93.3393 1.76906 93.6674 1.44094C93.9946 0.9825 94.5843 0.785625 95.2396 0.785625V0C94.1915 0.196875 93.4058 0.655312 92.8818 1.44094C92.4233 2.09625 92.2265 3.01312 92.2265 4.12687C92.2265 5.04375 92.3577 5.56781 92.5536 6.02625C92.7505 6.68156 93.3393 6.94313 93.9946 6.94313C95.3043 6.94313 95.8283 6.1575 95.8283 4.71563L95.8293 4.71656Z" fill="white"/>
</g>
<path d="M4.0625 36.8604H1.66016V40H0.766602V32.8906H4.46777V33.6621H1.66016V36.0938H4.0625V36.8604ZM6.38184 40H5.51758V32.5H6.38184V40ZM8.67676 40H7.8125V34.7168H8.67676V40ZM8.74512 33.3154C8.74512 33.4619 8.70443 33.584 8.62305 33.6816C8.54167 33.7793 8.41797 33.8281 8.25195 33.8281C8.08919 33.8281 7.96712 33.7793 7.88574 33.6816C7.80436 33.584 7.76367 33.4619 7.76367 33.3154C7.76367 33.1689 7.80436 33.0452 7.88574 32.9443C7.96712 32.8434 8.08919 32.793 8.25195 32.793C8.41471 32.793 8.53678 32.8451 8.61816 32.9492C8.7028 33.0501 8.74512 33.1722 8.74512 33.3154ZM11.5674 36.6455L12.4707 34.7168H13.4717L12.0361 37.3291L13.5059 40H12.5146L11.582 38.0225L10.6445 40H9.64844L11.1182 37.3291L9.6875 34.7168H10.6787L11.5674 36.6455ZM14.5557 40V32.8906H16.582C17.2298 32.8906 17.7165 33.0485 18.042 33.3643C18.3708 33.68 18.5352 34.1536 18.5352 34.7852C18.5352 35.1172 18.4521 35.4102 18.2861 35.6641C18.1201 35.918 17.8955 36.1149 17.6123 36.2549C17.9378 36.3525 18.195 36.5527 18.3838 36.8555C18.5758 37.1582 18.6719 37.5228 18.6719 37.9492C18.6719 38.5872 18.4961 39.0885 18.1445 39.4531C17.7962 39.8177 17.2982 40 16.6504 40H14.5557ZM15.4492 36.6748V39.2334H16.6699C17.0085 39.2334 17.277 39.1227 17.4756 38.9014C17.6742 38.6768 17.7734 38.3626 17.7734 37.959C17.7734 37.1029 17.4121 36.6748 16.6895 36.6748H15.4492ZM15.4492 35.9229H16.5967C16.9059 35.9229 17.1549 35.8187 17.3438 35.6104C17.5358 35.402 17.6318 35.1253 17.6318 34.7803C17.6318 34.3896 17.5456 34.1064 17.373 33.9307C17.2005 33.7516 16.9368 33.6621 16.582 33.6621H15.4492V35.9229ZM22.5879 39.5361C22.3014 39.9105 21.8831 40.0977 21.333 40.0977C20.8545 40.0977 20.4932 39.9333 20.249 39.6045C20.0049 39.2725 19.8812 38.7907 19.8779 38.1592V34.7168H20.7373V38.0957C20.7373 38.9193 20.9847 39.3311 21.4795 39.3311C22.0036 39.3311 22.3649 39.0967 22.5635 38.6279V34.7168H23.4277V40H22.6074L22.5879 39.5361ZM27.2949 38.6475C27.2949 38.4619 27.2249 38.3024 27.085 38.1689C26.945 38.0355 26.6748 37.8792 26.2744 37.7002C25.8089 37.5081 25.4801 37.3438 25.2881 37.207C25.0993 37.0703 24.9577 36.9157 24.8633 36.7432C24.7689 36.5674 24.7217 36.359 24.7217 36.1182C24.7217 35.6885 24.8779 35.332 25.1904 35.0488C25.5062 34.7624 25.9082 34.6191 26.3965 34.6191C26.9108 34.6191 27.3242 34.7689 27.6367 35.0684C27.9492 35.3678 28.1055 35.752 28.1055 36.2207H27.2461C27.2461 35.9831 27.1663 35.7812 27.0068 35.6152C26.8473 35.446 26.6439 35.3613 26.3965 35.3613C26.1426 35.3613 25.9424 35.4281 25.7959 35.5615C25.6527 35.6917 25.5811 35.8675 25.5811 36.0889C25.5811 36.2646 25.6331 36.4062 25.7373 36.5137C25.8447 36.6211 26.1003 36.7627 26.5039 36.9385C27.1452 37.1891 27.5814 37.4349 27.8125 37.6758C28.0436 37.9134 28.1592 38.2161 28.1592 38.584C28.1592 39.043 28.0013 39.4108 27.6855 39.6875C27.3698 39.9609 26.9466 40.0977 26.416 40.0977C25.8659 40.0977 25.4199 39.9398 25.0781 39.624C24.7363 39.3083 24.5654 38.9079 24.5654 38.4229H25.4346C25.4443 38.7158 25.5339 38.9453 25.7031 39.1113C25.8724 39.2773 26.11 39.3604 26.416 39.3604C26.7025 39.3604 26.9206 39.2969 27.0703 39.1699C27.2201 39.0397 27.2949 38.8656 27.2949 38.6475ZM32.6367 40H31.7432V32.8906H32.6367V40ZM31.6504 31.7529C31.6504 31.6064 31.6943 31.4827 31.7822 31.3818C31.8734 31.2809 32.0068 31.2305 32.1826 31.2305C32.3584 31.2305 32.4919 31.2809 32.583 31.3818C32.6742 31.4827 32.7197 31.6064 32.7197 31.7529C32.7197 31.8994 32.6742 32.0215 32.583 32.1191C32.4919 32.2168 32.3584 32.2656 32.1826 32.2656C32.0068 32.2656 31.8734 32.2168 31.7822 32.1191C31.6943 32.0215 31.6504 31.8994 31.6504 31.7529ZM36.6504 38.6475C36.6504 38.4619 36.5804 38.3024 36.4404 38.1689C36.3005 38.0355 36.0303 37.8792 35.6299 37.7002C35.1644 37.5081 34.8356 37.3438 34.6436 37.207C34.4548 37.0703 34.3132 36.9157 34.2188 36.7432C34.1243 36.5674 34.0771 36.359 34.0771 36.1182C34.0771 35.6885 34.2334 35.332 34.5459 35.0488C34.8617 34.7624 35.2637 34.6191 35.752 34.6191C36.2663 34.6191 36.6797 34.7689 36.9922 35.0684C37.3047 35.3678 37.4609 35.752 37.4609 36.2207H36.6016C36.6016 35.9831 36.5218 35.7812 36.3623 35.6152C36.2028 35.446 35.9993 35.3613 35.752 35.3613C35.498 35.3613 35.2979 35.4281 35.1514 35.5615C35.0081 35.6917 34.9365 35.8675 34.9365 36.0889C34.9365 36.2646 34.9886 36.4062 35.0928 36.5137C35.2002 36.6211 35.4557 36.7627 35.8594 36.9385C36.5007 37.1891 36.9368 37.4349 37.168 37.6758C37.3991 37.9134 37.5146 38.2161 37.5146 38.584C37.5146 39.043 37.3568 39.4108 37.041 39.6875C36.7253 39.9609 36.3021 40.0977 35.7715 40.0977C35.2214 40.0977 34.7754 39.9398 34.4336 39.624C34.0918 39.3083 33.9209 38.9079 33.9209 38.4229H34.79C34.7998 38.7158 34.8893 38.9453 35.0586 39.1113C35.2279 39.2773 35.4655 39.3604 35.7715 39.3604C36.0579 39.3604 36.276 39.2969 36.4258 39.1699C36.5755 39.0397 36.6504 38.8656 36.6504 38.6475ZM36.2109 40.0391L36.1621 40.293C36.3574 40.3353 36.5072 40.4297 36.6113 40.5762C36.7155 40.7227 36.7676 40.9098 36.7676 41.1377C36.7676 41.4502 36.6585 41.6992 36.4404 41.8848C36.2256 42.0703 35.9163 42.1631 35.5127 42.1631L35.4834 41.6406C35.9001 41.6406 36.1084 41.4795 36.1084 41.1572C36.1084 41.0107 36.0645 40.9033 35.9766 40.835C35.8919 40.7699 35.721 40.7227 35.4639 40.6934L35.6006 40.0391H36.2109ZM45.6836 37.0703C45.6836 38.0404 45.4769 38.7874 45.0635 39.3115C44.6501 39.8356 44.0625 40.0977 43.3008 40.0977C42.5684 40.0977 41.9889 39.8438 41.5625 39.3359C41.1393 38.8249 40.9196 38.1038 40.9033 37.1729V35.835C40.9033 34.8844 41.1133 34.1406 41.5332 33.6035C41.9531 33.0632 42.5391 32.793 43.291 32.793C44.0397 32.793 44.6224 33.0518 45.0391 33.5693C45.459 34.0837 45.6738 34.8193 45.6836 35.7764V37.0703ZM44.79 35.8252C44.79 35.0732 44.6663 34.515 44.4189 34.1504C44.1748 33.7826 43.7988 33.5986 43.291 33.5986C42.7995 33.5986 42.4268 33.7842 42.1729 34.1553C41.9222 34.5264 41.7952 35.0732 41.792 35.7959V37.0703C41.792 37.7962 41.9173 38.3496 42.168 38.7305C42.4219 39.1113 42.7995 39.3018 43.3008 39.3018C43.8021 39.3018 44.1732 39.126 44.4141 38.7744C44.6549 38.4229 44.7803 37.8841 44.79 37.1582V35.8252ZM49.126 35.5273C49.0055 35.5046 48.8753 35.4932 48.7354 35.4932C48.2926 35.4932 47.9834 35.7357 47.8076 36.2207V40H46.9434V34.7168H47.7832L47.7979 35.2539C48.029 34.8307 48.3561 34.6191 48.7793 34.6191C48.916 34.6191 49.0299 34.6419 49.1211 34.6875L49.126 35.5273ZM51.3672 33.4375V34.7168H52.1631V35.415H51.3672V38.6914C51.3672 38.8997 51.4014 39.0576 51.4697 39.165C51.5381 39.2725 51.6553 39.3262 51.8213 39.3262C51.9352 39.3262 52.0508 39.3066 52.168 39.2676L52.1582 40C51.9629 40.0651 51.7627 40.0977 51.5576 40.0977C51.2158 40.0977 50.9554 39.9756 50.7764 39.7314C50.5973 39.4873 50.5078 39.1423 50.5078 38.6963V35.415H49.7021V34.7168H50.5078V33.4375H51.3672ZM55.9131 40C55.861 39.8861 55.8236 39.694 55.8008 39.4238C55.4948 39.873 55.1042 40.0977 54.6289 40.0977C54.1504 40.0977 53.776 39.9642 53.5059 39.6973C53.2389 39.4271 53.1055 39.0479 53.1055 38.5596C53.1055 38.0225 53.2878 37.596 53.6523 37.2803C54.0169 36.9645 54.5166 36.8034 55.1514 36.7969H55.7861V36.2354C55.7861 35.9196 55.7161 35.695 55.5762 35.5615C55.4362 35.4281 55.223 35.3613 54.9365 35.3613C54.6761 35.3613 54.4645 35.4395 54.3018 35.5957C54.139 35.7487 54.0576 35.944 54.0576 36.1816H53.1934C53.1934 35.9115 53.2731 35.6543 53.4326 35.4102C53.5921 35.1628 53.807 34.9691 54.0771 34.8291C54.3473 34.6891 54.6484 34.6191 54.9805 34.6191C55.5208 34.6191 55.931 34.7542 56.2109 35.0244C56.4941 35.2913 56.639 35.682 56.6455 36.1963V38.8623C56.6488 39.2692 56.7041 39.6224 56.8115 39.9219V40H55.9131ZM54.7607 39.3115C54.9723 39.3115 55.1742 39.2529 55.3662 39.1357C55.5583 39.0186 55.6982 38.8721 55.7861 38.6963V37.4365H55.2979C54.8877 37.443 54.5638 37.5358 54.3262 37.7148C54.0885 37.8906 53.9697 38.138 53.9697 38.457C53.9697 38.7565 54.0299 38.9746 54.1504 39.1113C54.2708 39.2448 54.4743 39.3115 54.7607 39.3115ZM57.8174 37.1191C57.8174 36.2956 57.9671 35.6738 58.2666 35.2539C58.5661 34.8307 59.0039 34.6191 59.5801 34.6191C60.1172 34.6191 60.5257 34.8486 60.8057 35.3076L60.8496 34.7168H61.6309V40.0488C61.6309 40.7031 61.4632 41.2044 61.1279 41.5527C60.7926 41.9043 60.3255 42.0801 59.7266 42.0801C59.4661 42.0801 59.1732 42.015 58.8477 41.8848C58.5254 41.7578 58.2829 41.5999 58.1201 41.4111L58.4717 40.8154C58.8298 41.167 59.2253 41.3428 59.6582 41.3428C60.3776 41.3428 60.7471 40.9505 60.7666 40.166V39.4775C60.4867 39.891 60.0895 40.0977 59.5752 40.0977C59.0283 40.0977 58.6019 39.8926 58.2959 39.4824C57.9899 39.069 57.8304 38.4766 57.8174 37.7051V37.1191ZM58.6816 37.6123C58.6816 38.2048 58.7679 38.641 58.9404 38.9209C59.1162 39.1976 59.4027 39.3359 59.7998 39.3359C60.2295 39.3359 60.5518 39.1162 60.7666 38.6768V36.0352C60.542 35.6022 60.223 35.3857 59.8096 35.3857C59.4124 35.3857 59.126 35.5257 58.9502 35.8057C58.7744 36.0824 58.6849 36.5088 58.6816 37.085V37.6123ZM61.1768 32.6953C61.1768 33.0892 61.0417 33.4066 60.7715 33.6475C60.5046 33.8851 60.153 34.0039 59.7168 34.0039C59.2806 34.0039 58.9274 33.8835 58.6572 33.6426C58.387 33.4017 58.252 33.0859 58.252 32.6953H58.9893C58.9893 32.9232 59.0511 33.1022 59.1748 33.2324C59.2985 33.3594 59.4792 33.4229 59.7168 33.4229C59.9447 33.4229 60.1221 33.3594 60.249 33.2324C60.3792 33.1055 60.4443 32.9264 60.4443 32.6953H61.1768ZM63.8525 40H62.9883V34.7168H63.8525V40Z" fill="white"/>
<defs>
<clipPath id="clip0">
<rect width="102.273" height="30" fill="white"/>
</clipPath>
</defs>
</svg>
