<svg viewBox="0 0 24 24" xmlns="http://www.w3.org/2000/svg" class="flix-icon snacks"><path d="M20 7.7a.5.5 0 00-.85-.36l-.51.48-.48-.46a.5.5 0 00-.72.02l-.43.45-.45-.48a.51.51 0 00-.79.07.5.5 0 00-.08.28v1.48c0 .2.08.4.22.54a1 1 0 00-.22.6v8.47c.01.24.1.47.23.67a.8.8 0 00-.23.55v1.49a.5.5 0 00.5.5.5.5 0 00.36-.16l.46-.48.44.48a.5.5 0 00.73 0l.47-.5.47.5a.5.5 0 00.38.16.5.5 0 00.5-.5v-1.47a.77.77 0 00-.26-.57c.15-.18.24-.4.26-.65v-8.48c-.01-.22-.1-.43-.24-.6a.76.76 0 00.24-.54V7.7zm-1.34 12.19l.26.2.07.05v.1a.51.51 0 00-.54-.09.5.5 0 00-.17.12l-.45.49-.44-.48a.45.45 0 00-.33-.17H17a.48.48 0 00-.3.12v-.11l.08-.07.2-.17a.5.5 0 000-.71c-.12-.12-.21-.26-.28-.4v-8.4c.08-.13.18-.25.3-.36a.5.5 0 000-.71 2.13 2.13 0 00-.3-.23v-.12a.5.5 0 00.52.07.51.51 0 00.17-.12l.44-.46.46.44c.09.1.22.15.35.15a.5.5 0 00.35-.14v-.01.17l-.06.05c-.1.05-.18.12-.26.2a.5.5 0 000 .71l.32.37v8.38c-.09.15-.2.29-.33.4a.5.5 0 000 .72zm-8.2-15.55v-.93A1.41 1.41 0 009.03 2H7.88a1.41 1.41 0 00-1.4 1.4v.94L4.53 6.78c-.35.45-.54 1-.54 1.56v12.05A1.61 1.61 0 005.61 22h5.7a1.61 1.61 0 001.61-1.61V8.32c0-.55-.19-1.1-.53-1.53l-1.94-2.45zm-2.98-.93a.4.4 0 01.4-.4h1.16a.4.4 0 01.4.4V4H7.48v-.6zm4.44 16.98a.6.6 0 01-.6.6H5.6a.6.6 0 01-.6-.6V8.34c0-.34.11-.67.32-.93l1.9-2.39H9.7l1.9 2.4c.2.26.31.58.31.9V20.4z"></path></svg>