<svg viewBox="0 0 24 24" xmlns="http://www.w3.org/2000/svg" class="flix-icon mask"><path d="M18.74 8.76l-1.16.52-.01-.06A6.92 6.92 0 0010.55 3 6.95 6.95 0 003.5 9.82a7.7 7.7 0 002.8 5.82.32.32 0 01.12.22v3.6a1.08 1.08 0 001 1.07l5.6.47h.1c.28 0 .56-.1.76-.3a1.04 1.04 0 00.35-.78v-1.18l.27.26a6 6 0 004.24-10.24zM10.55 4a5.94 5.94 0 016.02 5.28c0 .14.04.28.09.41l-4.68 2.1-7.29-3.4A6.02 6.02 0 0110.55 4zM7.06 15L7 14.92l-.03-.03-.03-.02A6.71 6.71 0 014.5 9.82l.02-.4-.56-.27 7.54 3.51V15H7.07zm6.18 4.92l-.05.06a.09.09 0 01-.07.02h-.05l-5.55-.47c-.06 0-.1-.04-.1-.07V16h4.08l1.74 1.74v2.18zm1.66-1.94l-2.4-2.4v-2.93l5.98-2.68a5 5 0 01-3.58 8.01zm-.9-4.73a.5.5 0 11-1 0 .5.5 0 011 0zm1.5-.75a.5.5 0 11-1 0 .5.5 0 011 0zm1.5-.75a.5.5 0 11-1 0 .5.5 0 011 0zM13 9a1 1 0 112 0 1 1 0 01-2 0z"></path></svg>